<svg width="20" height="20" fill="#3a3a3a" viewBox="0 0 24 24" xmlns="http://www.w3.org/2000/svg">
  <path d="M20.288 9.911c-.728-.413-1.637-.107-2.03.642l-1.94 3.956a.328.328 0 0 1-.419.161.328.328 0 0 1-.207-.306V3.375c0-.652-.602-1.125-1.255-1.125-.652 0-1.218.473-1.218 1.125v7.342a.527.527 0 0 1-.506.533.516.516 0 0 1-.525-.516V1.125C12.188.473 11.675 0 11.021 0c-.652 0-1.178.473-1.178 1.125v9.592a.527.527 0 0 1-.506.533.516.516 0 0 1-.525-.516V2.625c0-.652-.567-1.125-1.22-1.125-.652 0-1.218.52-1.218 1.172v8.795a.527.527 0 0 1-.506.533.516.516 0 0 1-.525-.516V5.625c0-.652-.52-1.125-1.172-1.125-.653 0-1.178.48-1.172 1.125V15.75C3 21.254 6.375 24 10.5 24h.75c4.125 0 5.424-1.856 6.375-4.125l3.22-7.922c.311-.844.17-1.629-.557-2.042Z"></path>
</svg>