<svg xmlns="http://www.w3.org/2000/svg" xmlns:xlink="http://www.w3.org/1999/xlink" width="40" zoomAndPan="magnify" viewBox="0 0 375 374.999991" height="40" preserveAspectRatio="xMidYMid meet" version="1.0"><defs><g/><clipPath id="98dbc5d8d7"><path d="M 205.242188 0 L 362.355469 0 L 362.355469 173.496094 L 205.242188 173.496094 Z M 205.242188 0 " clip-rule="nonzero"/></clipPath><clipPath id="acb3942a51"><path d="M 14.601562 218.550781 L 301.664062 218.550781 L 301.664062 375 L 14.601562 375 Z M 14.601562 218.550781 " clip-rule="nonzero"/></clipPath><clipPath id="ddfad90186"><path d="M 221 55 L 375 55 L 375 335 L 221 335 Z M 221 55 " clip-rule="nonzero"/></clipPath><clipPath id="1ab9f11365"><path d="M 166.332031 222.40625 L 329.878906 -0.00390625 L 559.238281 168.652344 L 395.695312 391.0625 Z M 166.332031 222.40625 " clip-rule="nonzero"/></clipPath><clipPath id="154b54716e"><path d="M 248.105469 111.199219 C 202.945312 172.617188 217.484375 260.019531 280.582031 306.417969 C 343.679688 352.816406 431.441406 340.640625 476.605469 279.222656 C 521.765625 217.804688 507.226562 130.402344 444.128906 84.003906 C 381.03125 37.605469 293.265625 49.78125 248.105469 111.199219 Z M 248.105469 111.199219 " clip-rule="nonzero"/></clipPath><clipPath id="ae0d40c0d5"><path d="M 305.183594 0 L 366.292969 0 L 366.292969 187.5 L 305.183594 187.5 Z M 305.183594 0 " clip-rule="nonzero"/></clipPath><clipPath id="45185bd47e"><path d="M 184.519531 331.566406 L 291.902344 331.566406 L 291.902344 375 L 184.519531 375 Z M 184.519531 331.566406 " clip-rule="nonzero"/></clipPath><clipPath id="89d0bdebf6"><path d="M 249.917969 0 L 357.300781 0 L 357.300781 234.28125 L 249.917969 234.28125 Z M 249.917969 0 " clip-rule="nonzero"/></clipPath></defs><g fill="#f2710c" fill-opacity="1"><g transform="translate(63.447273, 317.729178)"><g><path d="M 194.816406 0 L 194.816406 -312.0625 L 143.105469 -312.0625 L 14.265625 -143.550781 L 14.265625 -94.511719 L 143.105469 -94.511719 L 143.105469 0 Z M 69.101562 -139.984375 L 143.105469 -233.15625 L 143.105469 -139.984375 Z M 69.101562 -139.984375 "/></g></g></g><g clip-path="url(#98dbc5d8d7)"><path fill="#2a2a2a" d="M 205.242188 -5.144531 L 362.351562 -5.144531 L 362.351562 173.441406 L 205.242188 173.441406 Z M 205.242188 -5.144531 " fill-opacity="1" fill-rule="nonzero"/></g><g clip-path="url(#acb3942a51)"><path fill="#2a2a2a" d="M 14.601562 218.550781 L 301.664062 218.550781 L 301.664062 541.492188 L 14.601562 541.492188 Z M 14.601562 218.550781 " fill-opacity="1" fill-rule="nonzero"/></g><g clip-path="url(#ddfad90186)"><g clip-path="url(#1ab9f11365)"><g clip-path="url(#154b54716e)"><path fill="#2a2a2a" d="M 166.332031 222.40625 L 329.878906 -0.00390625 L 558.371094 168.011719 L 394.824219 390.421875 Z M 166.332031 222.40625 " fill-opacity="1" fill-rule="nonzero"/></g></g></g><g clip-path="url(#ae0d40c0d5)"><path fill="#2a2a2a" d="M 305.183594 0 L 366.292969 0 L 366.292969 187.382812 L 305.183594 187.382812 Z M 305.183594 0 " fill-opacity="1" fill-rule="nonzero"/></g><g fill="#f2710c" fill-opacity="1"><g transform="translate(235.616195, 258.749983)"><g><path d="M 30.34375 -178.800781 C 30.34375 -182.066406 29.664062 -182.882812 26.261719 -182.882812 L 15.375 -182.882812 C 10.886719 -182.882812 6.804688 -179.210938 6.804688 -174.3125 L 6.804688 -4.898438 C 6.804688 -1.226562 8.164062 0 11.566406 0 L 25.582031 0 C 28.984375 0 30.34375 -1.226562 30.34375 -4.898438 Z M 30.34375 -178.800781 "/></g></g></g><g fill="#f2710c" fill-opacity="1"><g transform="translate(197.121086, 468.503876)"><g><path d="M 30.34375 -178.800781 C 30.34375 -182.066406 29.664062 -182.882812 26.261719 -182.882812 L 15.375 -182.882812 C 10.886719 -182.882812 6.804688 -179.210938 6.804688 -174.3125 L 6.804688 -4.898438 C 6.804688 -1.226562 8.164062 0 11.566406 0 L 25.582031 0 C 28.984375 0 30.34375 -1.226562 30.34375 -4.898438 Z M 30.34375 -178.800781 "/></g></g></g><g clip-path="url(#45185bd47e)"><path fill="#2a2a2a" d="M 184.519531 331.566406 L 291.902344 331.566406 L 291.902344 615.960938 L 184.519531 615.960938 Z M 184.519531 331.566406 " fill-opacity="1" fill-rule="nonzero"/></g><g clip-path="url(#89d0bdebf6)"><path fill="#2a2a2a" d="M 249.917969 -50.210938 L 357.300781 -50.210938 L 357.300781 234.183594 L 249.917969 234.183594 Z M 249.917969 -50.210938 " fill-opacity="1" fill-rule="nonzero"/></g><g fill="#f2710c" fill-opacity="1"><g transform="translate(197.509064, 189.457354)"><g><path d="M 30.074219 -174.445312 C 30.074219 -179.210938 25.988281 -182.882812 21.5 -182.882812 L 10.75 -182.882812 C 7.484375 -182.882812 6.53125 -181.796875 6.53125 -178.53125 L 6.53125 -23.269531 C 6.53125 -16.191406 9.523438 -9.796875 14.96875 -5.035156 C 20.410156 0 28.304688 2.859375 37.964844 2.859375 C 47.625 2.859375 55.382812 -0.136719 60.6875 -5.171875 C 65.722656 -10.070312 68.582031 -16.601562 68.582031 -23.269531 L 68.582031 -178.53125 C 68.582031 -181.796875 67.628906 -182.882812 64.363281 -182.882812 L 53.476562 -182.882812 C 48.988281 -182.882812 45.039062 -179.210938 45.039062 -174.445312 L 45.039062 -24.222656 C 45.039062 -20.546875 42.320312 -17.691406 37.554688 -17.691406 C 32.65625 -17.691406 30.074219 -20.820312 30.074219 -24.222656 Z M 30.074219 -174.445312 "/></g></g></g><g fill="#f2710c" fill-opacity="1"><g transform="translate(197.438752, 366.457342)"><g><path d="M 37.554688 2.859375 C 46.945312 2.859375 54.429688 0.273438 60.28125 -4.761719 C 65.585938 -9.523438 68.582031 -16.058594 68.582031 -23.269531 C 68.582031 -33.746094 67.628906 -43.40625 65.722656 -52.117188 C 62.59375 -66.675781 57.152344 -81.644531 49.394531 -97.15625 C 46.539062 -102.871094 43.40625 -109.402344 40.140625 -116.886719 C 33.609375 -131.449219 30.074219 -144.101562 30.074219 -158.664062 C 30.074219 -162.0625 33.066406 -165.332031 37.554688 -165.332031 C 42.046875 -165.332031 45.039062 -162.0625 45.039062 -158.664062 L 45.039062 -125.734375 C 45.039062 -121.785156 48.851562 -119.472656 53.070312 -119.472656 L 64.5 -119.472656 C 67.21875 -119.472656 68.582031 -120.699219 68.582031 -123.285156 L 68.582031 -159.613281 C 68.582031 -166.691406 65.453125 -173.359375 60.007812 -178.257812 C 54.566406 -183.15625 46.402344 -185.878906 37.148438 -185.878906 C 28.03125 -185.878906 20.273438 -183.15625 14.832031 -178.257812 C 9.523438 -173.359375 6.53125 -166.691406 6.53125 -159.613281 C 6.53125 -149.683594 7.484375 -140.566406 9.390625 -132.398438 C 12.65625 -118.382812 18.097656 -103.6875 25.855469 -88.585938 C 29.527344 -81.101562 32.523438 -74.433594 35.105469 -68.582031 C 41.503906 -53.339844 45.039062 -40.003906 45.039062 -24.222656 C 45.039062 -20.820312 42.046875 -17.691406 37.554688 -17.691406 C 33.066406 -17.691406 30.074219 -20.820312 30.074219 -24.222656 L 30.074219 -55.382812 C 30.074219 -59.328125 26.261719 -61.640625 22.042969 -61.640625 L 10.613281 -61.640625 C 7.890625 -61.640625 6.53125 -60.28125 6.53125 -57.695312 L 6.53125 -23.269531 C 6.53125 -16.058594 9.523438 -9.523438 14.96875 -4.761719 C 20.546875 0.273438 28.167969 2.859375 37.554688 2.859375 Z M 37.554688 2.859375 "/></g></g></g></svg>