<svg xmlns="http://www.w3.org/2000/svg" xmlns:xlink="http://www.w3.org/1999/xlink" width="500" zoomAndPan="magnify" viewBox="0 0 375 374.999991" height="500" preserveAspectRatio="xMidYMid meet" version="1.0"><defs><g/></defs><g fill="#f2710c" fill-opacity="1"><g transform="translate(37.500002, 220.367477)"><g><path d="M 7.53125 -128.15625 C 5.246094 -128.15625 4.578125 -127.394531 4.578125 -125.105469 L 4.578125 -3.148438 C 4.578125 -0.761719 5.246094 0 7.53125 0 L 15.066406 0 C 18.214844 0 21.074219 -2.574219 21.074219 -5.910156 L 21.074219 -56.449219 L 29.179688 -56.449219 C 33.851562 -56.449219 36.519531 -59.40625 36.519531 -64.839844 L 36.519531 -67.320312 C 36.519531 -69.324219 35.28125 -70.46875 33.375 -70.46875 L 21.074219 -70.46875 L 21.074219 -114.234375 L 31.65625 -114.234375 C 36.519531 -114.234375 39 -117.191406 39 -122.53125 L 39 -125.011719 C 39 -127.011719 37.761719 -128.15625 35.855469 -128.15625 Z M 7.53125 -128.15625 "/></g></g></g><g fill="#f2710c" fill-opacity="1"><g transform="translate(77.739898, 220.367477)"><g><path d="M 4.671875 -16.59375 C 4.671875 -11.917969 6.769531 -7.246094 10.296875 -3.8125 C 14.304688 0 19.644531 1.90625 26.414062 1.90625 C 33.183594 1.90625 38.617188 -0.285156 42.527344 -3.8125 C 46.246094 -7.246094 48.15625 -11.917969 48.15625 -16.59375 L 48.15625 -111.757812 C 48.15625 -116.714844 46.246094 -121.292969 42.527344 -124.726562 C 38.429688 -128.347656 32.992188 -130.160156 26.414062 -130.160156 C 19.929688 -130.160156 14.589844 -128.347656 10.488281 -124.628906 C 6.675781 -121.195312 4.671875 -116.714844 4.671875 -111.757812 Z M 21.167969 -111.183594 C 21.167969 -113.757812 23.265625 -115.855469 26.414062 -115.855469 C 29.558594 -115.855469 31.65625 -113.570312 31.65625 -111.183594 L 31.65625 -17.070312 C 31.65625 -14.683594 29.75 -12.394531 26.605469 -12.394531 C 23.171875 -12.394531 21.167969 -14.398438 21.167969 -17.070312 Z M 21.167969 -111.183594 "/></g></g></g><g fill="#f2710c" fill-opacity="1"><g transform="translate(130.375976, 220.367477)"><g><path d="M 48.058594 -46.722656 C 48.058594 -52.351562 45.578125 -55.59375 40.621094 -57.5 C 45.578125 -60.265625 48.058594 -64.746094 48.058594 -70.847656 L 48.058594 -109.660156 C 48.058594 -114.617188 46.058594 -119.097656 42.527344 -122.53125 C 38.808594 -126.058594 33.375 -128.15625 26.605469 -128.15625 L 7.53125 -128.15625 C 5.246094 -128.15625 4.578125 -127.394531 4.578125 -125.105469 L 4.578125 -3.050781 C 4.578125 -0.761719 5.246094 0 7.53125 0 L 15.066406 0 C 18.214844 0 21.074219 -2.574219 21.074219 -5.910156 L 21.074219 -51.207031 L 26.316406 -51.207031 C 29.464844 -51.207031 31.5625 -49.011719 31.5625 -46.628906 L 31.5625 -5.910156 C 31.5625 -2.574219 34.328125 0 37.476562 0 L 45.101562 0 C 47.390625 0 48.058594 -0.761719 48.058594 -3.050781 Z M 26.316406 -114.234375 C 29.464844 -114.234375 31.5625 -111.949219 31.5625 -109.5625 L 31.5625 -71.039062 C 31.5625 -67.988281 29.75 -65.128906 26.699219 -65.128906 L 21.074219 -65.128906 L 21.074219 -114.234375 Z M 26.316406 -114.234375 "/></g></g></g><g fill="#f2710c" fill-opacity="1"><g transform="translate(183.012054, 220.367477)"><g/></g></g><g fill="#f2710c" fill-opacity="1"><g transform="translate(209.044031, 220.367477)"><g><path d="M 21.074219 -122.246094 C 21.074219 -125.582031 18.214844 -128.15625 15.066406 -128.15625 L 7.53125 -128.15625 C 5.246094 -128.15625 4.578125 -127.394531 4.578125 -125.105469 L 4.578125 -16.304688 C 4.578125 -11.347656 6.675781 -6.867188 10.488281 -3.527344 C 14.304688 0 19.832031 2.003906 26.605469 2.003906 C 33.375 2.003906 38.808594 -0.09375 42.527344 -3.625 C 46.058594 -7.054688 48.058594 -11.632812 48.058594 -16.304688 L 48.058594 -125.105469 C 48.058594 -127.394531 47.390625 -128.15625 45.101562 -128.15625 L 37.476562 -128.15625 C 34.328125 -128.15625 31.5625 -125.582031 31.5625 -122.246094 L 31.5625 -16.972656 C 31.5625 -14.398438 29.65625 -12.394531 26.316406 -12.394531 C 22.886719 -12.394531 21.074219 -14.589844 21.074219 -16.972656 Z M 21.074219 -122.246094 "/></g></g></g><g fill="#f2710c" fill-opacity="1"><g transform="translate(261.680109, 220.367477)"><g><path d="M 26.316406 2.003906 C 32.898438 2.003906 38.140625 0.191406 42.242188 -3.335938 C 45.960938 -6.675781 48.058594 -11.25 48.058594 -16.304688 C 48.058594 -23.648438 47.390625 -30.417969 46.058594 -36.519531 C 43.863281 -46.722656 40.050781 -57.214844 34.613281 -68.082031 C 32.613281 -72.089844 30.417969 -76.664062 28.128906 -81.910156 C 23.554688 -92.113281 21.074219 -100.980469 21.074219 -111.183594 C 21.074219 -113.570312 23.171875 -115.855469 26.316406 -115.855469 C 29.464844 -115.855469 31.5625 -113.570312 31.5625 -111.183594 L 31.5625 -88.109375 C 31.5625 -85.34375 34.234375 -83.722656 37.1875 -83.722656 L 45.199219 -83.722656 C 47.105469 -83.722656 48.058594 -84.582031 48.058594 -86.390625 L 48.058594 -111.851562 C 48.058594 -116.808594 45.867188 -121.484375 42.050781 -124.914062 C 38.238281 -128.347656 32.515625 -130.253906 26.03125 -130.253906 C 19.644531 -130.253906 14.207031 -128.347656 10.394531 -124.914062 C 6.675781 -121.484375 4.578125 -116.808594 4.578125 -111.851562 C 4.578125 -104.890625 5.246094 -98.503906 6.578125 -92.78125 C 8.867188 -82.960938 12.683594 -72.660156 18.117188 -62.078125 C 20.691406 -56.832031 22.789062 -52.160156 24.601562 -48.058594 C 29.082031 -37.378906 31.5625 -28.035156 31.5625 -16.972656 C 31.5625 -14.589844 29.464844 -12.394531 26.316406 -12.394531 C 23.171875 -12.394531 21.074219 -14.589844 21.074219 -16.972656 L 21.074219 -38.808594 C 21.074219 -41.574219 18.402344 -43.195312 15.449219 -43.195312 L 7.4375 -43.195312 C 5.53125 -43.195312 4.578125 -42.242188 4.578125 -40.429688 L 4.578125 -16.304688 C 4.578125 -11.25 6.675781 -6.675781 10.488281 -3.335938 C 14.398438 0.191406 19.738281 2.003906 26.316406 2.003906 Z M 26.316406 2.003906 "/></g></g></g></svg>