<svg width="20" height="20" fill="#FEFEFE" viewBox="0 0 24 24" xmlns="http://www.w3.org/2000/svg">
  <path d="M22.456 5.219a.75.75 0 0 0-.616-.691c-4.033-.723-5.73-1.289-9.371-2.927-.364-.136-.59-.133-.938 0C7.889 3.24 6.192 3.804 2.16 4.528a.75.75 0 0 0-.617.691c-.18 2.864.204 5.531 1.142 7.929a16.352 16.352 0 0 0 3.348 5.27c2.094 2.222 4.416 3.52 5.613 4.012a.937.937 0 0 0 .709 0c1.265-.512 3.5-1.773 5.611-4.014a16.352 16.352 0 0 0 3.348-5.268c.939-2.397 1.323-5.065 1.142-7.929Z"></path>
</svg>